<?xml version="1.0" encoding="utf-8"?>
<!-- Generator: Adobe Illustrator 25.2.1, SVG Export Plug-In . SVG Version: 6.00 Build 0)  -->
<svg version="1.1" id="Camada_1" xmlns="http://www.w3.org/2000/svg" xmlns:xlink="http://www.w3.org/1999/xlink" x="0px" y="0px"
	 viewBox="0 0 512 512" style="enable-background:new 0 0 512 512;" xml:space="preserve">
<style type="text/css">
	.st0{fill-rule:evenodd;clip-rule:evenodd;fill:url(#SVGID_1_);}
	.st1{fill:#E76F51;}
	.st2{font-family:'Poppins-Regular';}
	.st3{font-size:48px;}
	.st4{letter-spacing:2;}
</style>
<linearGradient id="SVGID_1_" gradientUnits="userSpaceOnUse" x1="256" y1="338.2895" x2="256" y2="32">
	<stop  offset="0" style="stop-color:#E86F51"/>
	<stop  offset="0.5" style="stop-color:#F5A462"/>
	<stop  offset="1" style="stop-color:#E8C468"/>
</linearGradient>
<path class="st0" d="M356.7,274.9l-136.4,40.7c-3,0.9-6.2-0.8-7.2-3.8c-0.3-0.9-0.3-1.9-0.1-2.8l48.7-235.3c0.5-2.5,3-4.2,5.6-3.6
	c1.4,0.3,2.6,1.3,3.3,2.6l90.2,193.2c1.5,3.3,0.1,7.2-3.1,8.7C357.4,274.7,357.1,274.8,356.7,274.9z M380.1,265.3L275.7,41.7l0,0
	c-2.6-5.6-8.1-9.3-14.3-9.7c-6.2-0.4-12.1,2.7-15.3,8L132.8,225c-3.5,5.7-3.4,13,0.2,18.6l55.4,86.5c4.3,6.6,12.4,9.7,20,7.4
	l160.8-47.9c9.3-2.7,14.6-12.4,11.9-21.7C380.8,267,380.5,266.2,380.1,265.3L380.1,265.3z"/>
<text transform="matrix(1 0 0 1 45.2349 412.6483)" class="st1 st2 st3 st4">PRISMA SYSTEMS</text>
</svg>
