<svg id="Camada_1" data-name="Camada 1" xmlns="http://www.w3.org/2000/svg" xmlns:xlink="http://www.w3.org/1999/xlink" viewBox="0 0 500 500"><defs><style>.cls-1{font-size:56px;fill:#313131;font-family:Poppins-Light, Poppins;font-weight:300;}.cls-2{font-family:Poppins-Bold, Poppins;font-weight:700;}.cls-3{fill:url(#Gradiente_sem_nome_19);}.cls-4{fill:url(#Gradiente_sem_nome_24);}</style><linearGradient id="Gradiente_sem_nome_19" x1="411.87" y1="-967.25" x2="274.56" y2="-1190.37" gradientTransform="matrix(1, 0, 0, -1, 0, -878.48)" gradientUnits="userSpaceOnUse"><stop offset="0" stop-color="#ff6701"/><stop offset="0.3" stop-color="#ff770c"/><stop offset="0.88" stop-color="#fe9f29"/><stop offset="1" stop-color="#fea82f"/></linearGradient><linearGradient id="Gradiente_sem_nome_24" x1="145.09" y1="-997.77" x2="230.9" y2="-1248.97" gradientTransform="matrix(1, 0, 0, -1, 0, -878.48)" gradientUnits="userSpaceOnUse"><stop offset="0" stop-color="#ff6701"/><stop offset="0.2" stop-color="#ff6f07"/><stop offset="0.52" stop-color="#ff8516"/><stop offset="0.9" stop-color="#fea82f"/></linearGradient></defs><text class="cls-1" transform="translate(19.73 421.62)">PRISMA<tspan class="cls-2" x="192.97" y="0" xml:space="preserve"> SYSTEMS</tspan></text><path class="cls-3" d="M452.48,351,338,166.23,269.22,55.1a22.52,22.52,0,0,0-38.29,0L162.09,166.4c17,53.47,47.47,100.08,88.19,133.69A241.32,241.32,0,0,0,452.48,351Z"/><path class="cls-4" d="M338,166.23,269.22,55.1a22.52,22.52,0,0,0-38.29,0L162.09,166.4,47.52,351.57a241.43,241.43,0,0,0,202.76-51.48C290.87,266.36,321.13,219.7,338,166.23Z"/></svg>